<svg xmlns="http://www.w3.org/2000/svg" width="512" height="414"><path d="M248.27.998c-2.327.49-6.196 1.761-8.599 2.823-2.607 1.154-51.573 41.269-121.423 99.477C-7.186 207.824-1.781 202.909 1.197 209.746c2.141 4.913 21.017 26.986 24.591 28.756 2.614 1.294 3.947 1.409 6.5.559 1.795-.597 51.307-41.225 112.212-92.076 92.41-77.157 109.417-90.968 111.742-90.747 1.975.189 33.286 25.732 112 91.367 63.415 52.88 110.428 91.388 112.046 91.779 1.77.427 3.962.092 6-.918 3.492-1.731 22.122-23.605 24.962-29.308 1.934-3.884 2.516-7.891.75-5.158-.784 1.212-.972 1.068-.985-.754-.011-1.739-8.244-9.068-35.944-32l-35.93-29.746-.32-67.228-.321-67.227-2.771-2.773-2.772-2.772-33.176-.29c-33.828-.295-37.041-.01-39.998 3.55-.964 1.161-1.407 9.858-1.783 35.023l-.5 33.479-40.766-34.065C272.649 2.358 271.434 1.548 258.801.586c-3.466-.263-8.205-.078-10.531.412m-73.851 149.119l-89.008 73.75c-5.066 4.198-9.819 8.713-10.561 10.034-1.102 1.96-1.35 17.114-1.35 82.5V396.5l2.352 4.777c1.294 2.628 3.861 5.928 5.705 7.334 7.4 5.644-.865 5.389 174.42 5.389 179.824 0 168.526.43 175.642-6.686 7.267-7.267 6.85-2.083 7.16-88.897.219-61.423.006-78.861-1-81.73-1.081-3.083-15.093-15.164-90.664-78.167C297.953 117.534 256.939 84 255.973 84c-.966 0-37.665 29.753-81.554 66.117M293.5 203.913c-8.25 2.107-25.35 6.864-38 10.571-12.65 3.708-26.15 7.643-30 8.746-3.85 1.102-8.273 2.657-9.829 3.454-5.549 2.842-5.671 4.011-5.671 54.233v45.981l-3.75-1.657c-5.401-2.387-22.971-2.362-29.859.043-5.755 2.009-12.707 7.492-14.917 11.767-4.343 8.398-.014 17.589 10.79 22.908 17.094 8.415 41.365 4.046 48.459-8.723 3.243-5.837 4.277-20.523 4.277-60.737v-36.422l3.75-.983C235.293 251.38 303.848 236 304.947 236c.719 0 1.053 12.062 1.053 38 0 20.9-.113 37.995-.25 37.989-.137-.006-2.459-.681-5.159-1.5-6.304-1.912-19.803-1.912-26.243 0-10.18 3.023-17.279 9.715-18.107 17.069-.659 5.844 1.066 9.662 6.541 14.481 8.717 7.673 24.932 10.146 38.679 5.9 8.421-2.601 15.661-9.122 17.696-15.939 1.061-3.554 1.343-17.398 1.343-65.837v-61.336l-2.806-2.414c-3.748-3.223-6.324-3.064-24.194 1.5M.158 206c0 1.375.227 1.938.504 1.25.278-.687.278-1.812 0-2.5-.277-.687-.504-.125-.504 1.25" fill="undefined" fill-rule="evenodd"/></svg>